<?xml version="1.0" encoding="utf-8"?>
<!-- Generator: Adobe Illustrator 23.0.1, SVG Export Plug-In . SVG Version: 6.00 Build 0)  -->
<svg version="1.1" xmlns="http://www.w3.org/2000/svg" xmlns:xlink="http://www.w3.org/1999/xlink" x="0px" y="0px"
	 viewBox="0 0 360.24 191.57" style="enable-background:new 0 0 360.24 191.57;" xml:space="preserve">
<style type="text/css">
	.st0{fill:#FF675D;}
	.st1{fill:#67CFEE;}
	.st2{fill:#FFFFFF;}
	.st3{fill:none;stroke:#715745;stroke-width:0.5;stroke-miterlimit:10;}
	.st4{fill:none;stroke:#715745;stroke-width:0.5;stroke-miterlimit:10;stroke-dasharray:3.9766,3.9766;}
	.st5{fill:none;stroke:#000000;stroke-width:0.5;stroke-miterlimit:10;}
	.st6{fill:none;stroke:#715745;stroke-width:0.5;stroke-miterlimit:10;stroke-dasharray:4.0137,4.0137;}
	.st7{clip-path:url(#SVGID_2_);fill:#FF675D;}
	.st8{clip-path:url(#SVGID_2_);}
	.st9{clip-path:url(#SVGID_4_);fill:#FFFFFF;}
	.st10{clip-path:url(#SVGID_2_);fill:#FFFFFF;}
	.st11{clip-path:url(#SVGID_6_);fill:#FFFFFF;}
	.st12{clip-path:url(#SVGID_8_);fill:#FF675D;}
	.st13{clip-path:url(#SVGID_8_);}
	.st14{clip-path:url(#SVGID_10_);fill:#FFFFFF;}
	.st15{clip-path:url(#SVGID_8_);fill:#FFFFFF;}
	.st16{clip-path:url(#SVGID_12_);fill:#FFFFFF;}
	.st17{clip-path:url(#SVGID_14_);fill:none;stroke:#FF675D;stroke-width:3;stroke-miterlimit:10;}
	.st18{clip-path:url(#SVGID_16_);fill:none;stroke:#FF675D;stroke-width:3;stroke-miterlimit:10;}
	.st19{clip-path:url(#SVGID_18_);fill:#FFFFFF;}
	.st20{clip-path:url(#SVGID_20_);fill:#FFFFFF;}
	.st21{clip-path:url(#SVGID_22_);fill:#FFFFFF;}
	.st22{clip-path:url(#SVGID_24_);fill:#FFFFFF;}
	.st23{fill:none;stroke:#FF675D;stroke-miterlimit:10;}
</style>
<g id="Layer_1">
	<g>
		<path class="st2" d="M171.15,122.9c-3.12,7.7-7.63,13.66-13.06,17.63c-5.32,4.1-11.68,6.21-18.27,6.21
			c-18.38,0-33.99-16.02-33.99-36.51c0-19.25,14.1-37,33.64-37c19.54,0,33.87,16.64,33.87,37.62c0,2.73-0.23,3.85-0.46,5.46H124.8
			c1.16,8.19,7.51,13.04,15.03,13.04c5.9,0,9.02-2.86,11.68-6.46H171.15z M154.16,102.41c-0.81-4.1-4.62-11.8-14.57-11.8
			s-13.76,7.7-14.57,11.8H154.16z"/>
		<path class="st2" d="M183.98,77.83h17.92v7.33h0.23c1.5-2.86,5.66-9.69,17.69-9.69c5.66,0,13.41,2.11,18.5,12.29
			c3.93-6.71,10.52-12.29,20.35-12.29c4.51,0,11.68,1.12,16.88,6.95c6.01,6.83,6.94,11.42,6.94,26.7v37.62h-19.19v-36.63
			c0-5.59,0-15.27-9.83-15.27c-10.64,0-10.64,10.43-10.64,14.28v37.62h-19.19v-37.5c0-3.72,0-14.4-9.6-14.4
			c-10.87,0-10.87,11.17-10.87,15.27v36.63h-19.19V77.83z"/>
		<path class="st2" d="M317.27,146.74h-20v-21.11h20V146.74z"/>
		<path class="st2" d="M97.25,44.83v71.29c0,18.4-11.51,30.62-30.78,30.62c-18.47,0-28.24-11.36-30.91-28.17l19-4.02
			c1.47,8.48,5.35,13.08,11.64,13.08c5.89,0,10.71-3.88,10.71-12.5V62.37H48.95V44.83H97.25z"/>
	</g>
</g>
<g id="Layer_2">
</g>
</svg>
