<svg id="Layer_1" data-name="Layer 1" xmlns="http://www.w3.org/2000/svg" viewBox="0 0 360.24 191.57"><defs><style>.cls-1{fill:#ff675d;}</style></defs><title>Jem Final Collateral</title><path class="cls-1" d="M174.86,122.9c-3.12,7.7-7.63,13.66-13.06,17.63a29.73,29.73,0,0,1-18.27,6.21c-18.38,0-34-16-34-36.51,0-19.24,14.11-37,33.65-37s33.87,16.64,33.87,37.63a30.42,30.42,0,0,1-.46,5.46H128.5a14.69,14.69,0,0,0,15,13c5.9,0,9-2.86,11.68-6.46Zm-17-20.49a14.9,14.9,0,0,0-29.14,0Z"/><path class="cls-1" d="M187.69,77.83h17.92v7.32h.23c1.5-2.85,5.67-9.68,17.69-9.68,5.66,0,13.41,2.11,18.5,12.29,3.93-6.7,10.52-12.29,20.34-12.29,4.51,0,11.68,1.12,16.88,7,6,6.83,6.94,11.42,6.94,26.7v37.62H267V110.11c0-5.59,0-15.27-9.83-15.27-10.64,0-10.64,10.43-10.64,14.28v37.62H227.34v-37.5c0-3.72,0-14.4-9.59-14.4-10.87,0-10.87,11.17-10.87,15.27v36.63H187.69Z"/><path class="cls-1" d="M321,146.74H301V125.63h20Z"/><path class="cls-1" d="M101,44.83v71.29c0,18.4-11.51,30.62-30.78,30.62-18.46,0-28.23-11.35-30.91-28.17l19-4c1.48,8.48,5.36,13.08,11.65,13.08,5.88,0,10.7-3.88,10.7-12.5V62.37H52.66V44.83Z"/></svg>